PathFileType	4	(X/Y/Z)	Patient4_TMGait_0pt4_02_right_41.trc.trc
DataRate	CameraRate	NumFrames	NumMarkers	Units	OrigDataRate	OrigDataStartFrame	OrigNumFrames
78.651685393258	78.651685393258	4	33	mm	78.651685393258	124	       141
Frame#	Time	Sacral			L.Shoulder			Chest			R.Shoulder			Neck			R.ASIS			L.ASIS			R.Thigh.Superior			R.Thigh.Lateral			R.Thigh.Inferior			R.Patella			L.Thigh.Superior			L.Thigh.Lateral			L.Thigh.Inferior			L.Patella			L.Shank.Superior			L.Shank.Lateral			L.Shank.Inferior			R.Shank.Superior			R.Shank.Lateral			R.Shank.Inferior			R.Heel			R.Midfoot.Superior			R.Midfoot.Lateral			R.Toe			L.Heel			L.Midfoot.Lateral			L.Midfoot.Superior			L.Toe			L.Elbow			L.Wrist			R.Elbow			R.Wrist			
		X1	Y1	Z1	X2	Y2	Z2	X3	Y3	Z3	X4	Y4	Z4	X5	Y5	Z5	X6	Y6	Z6	X7	Y7	Z7	X8	Y8	Z8	X9	Y9	Z9	X10	Y10	Z10	X11	Y11	Z11	X12	Y12	Z12	X13	Y13	Z13	X14	Y14	Z14	X15	Y15	Z15	X16	Y16	Z16	X17	Y17	Z17	X18	Y18	Z18	X19	Y19	Z19	X20	Y20	Z20	X21	Y21	Z21	X22	Y22	Z22	X23	Y23	Z23	X24	Y24	Z24	X25	Y25	Z25	X26	Y26	Z26	X27	Y27	Z27	X28	Y28	Z28	X29	Y29	Z29	X30	Y30	Z30	X31	Y31	Z31	X32	Y32	Z32	X33	Y33	Z33	

124	55.633857142857	868.085495737719	999.519989143740	471.082740858873	1056.129809464806	1435.673626675887	303.773855506809	1142.360293096531	1364.581058453385	473.249337964157	1040.823725043487	1432.019046483900	639.968111263426	1022.406332364066	1493.922023405999	460.521916813504	1093.442490349406	940.454510240524	600.752787331696	1090.747515223714	963.202985028369	324.654401447882	1162.353493595678	753.906307747996	574.354533063794	1101.144354479150	636.065184071512	642.404415848942	1189.581941872543	592.642911402600	566.320647521194	1209.234539783743	504.277676997201	579.531910077939	1107.586253943252	736.338790508308	354.796850487783	1001.546565601253	633.806126469872	286.930555646286	1066.033206048123	544.883676149228	353.117946256054	1054.305095916163	477.314062445725	362.971603267245	1022.011896617850	408.695267039319	352.472607803292	923.357754792649	304.443758481398	295.669537206316	955.802204835615	188.071402429353	369.227553928534	1179.575272199596	415.101216660559	592.487929906909	1108.740181249314	314.161536078658	660.449691621442	1158.270588135664	216.359168686584	608.286539474534	1034.689809314478	45.926324314377	590.296781878730	1205.907149083583	103.952745888552	622.973896430278	1119.430120740342	39.534466612161	663.064869140764	1325.616806643492	54.120921914328	648.832378870988	815.019700919137	38.569338738528	404.780818889728	891.383277708043	35.426941451532	326.514987859346	974.318172159916	95.526625664528	357.405560814827	1103.805933420086	41.439215722797	332.471480117208	1111.162582389898	1101.857947526457	156.489984252563	1354.443781605316	1017.638693476444	188.140837272294	909.795928493732	1112.938445252261	747.594341742425	908.671773343022	852.237227591147	769.833968828547	
125	55.646571428571	869.014025148436	998.947953158721	474.243151140801	1055.501008215871	1435.065259249562	307.031969931053	1142.348815344519	1364.448772612012	476.403585743447	1040.835277261460	1431.565029620479	643.317181310505	1021.934849170123	1493.443578456984	463.772102471596	1094.715016249119	939.654083019692	603.570477943880	1091.733023833544	962.864947995344	327.651445000184	1162.024396840768	751.549073235177	576.696036945218	1098.622632853713	634.309878674180	643.198158736059	1186.848810811210	590.508422578957	567.175056378958	1204.964577708218	501.621158857973	579.556370634721	1107.896582508339	735.474895858133	356.298224075729	1000.666450871128	633.495639646788	289.111720980854	1065.358612147755	544.013582508764	354.454102044872	1053.629738993688	475.991760728773	364.049460297119	1020.217218187500	407.868492038932	353.605307408242	919.969378167621	304.989013873695	296.720001948842	951.582090159882	187.827551980196	369.558823795861	1174.713104360244	412.332191222659	592.474383390013	1103.039273466861	311.761399958024	660.269359585782	1151.175490458456	213.633284440224	607.371534429323	1025.652901153529	44.717668373360	589.372767104943	1196.922169791759	101.478713424257	621.664424640548	1110.308455231408	38.267708813482	662.297832500314	1316.835597474264	51.478270782180	647.820615680363	809.818426869791	38.764924313456	404.724757373955	886.251414315750	35.426443938677	326.562018941717	969.262419916141	95.513360480916	357.419460517910	1098.721613493083	41.272979294258	332.400387531280	1108.053612856930	1100.311060116731	160.280104762639	1350.192346845341	1012.125899270848	191.538313206189	912.685687664575	1110.683249668795	750.087814581016	914.462747256530	849.708847606551	770.463032159046	
126	55.659285714286	869.857639080396	998.519371622489	477.408610547303	1054.877621857228	1434.607374736168	310.363157573568	1142.368866420356	1364.418805227055	479.605426478876	1040.947420136881	1431.228105049597	646.737663103609	1021.516278567733	1493.117897826505	467.114038385837	1095.908669505469	939.070058966167	606.423300445931	1092.696241540569	962.660566493700	330.674791565618	1161.536394195855	749.474331737790	578.925198021317	1096.425636656677	633.058667799286	644.370112787713	1184.049562407209	588.744002560272	568.051876992579	1200.844058897829	499.503391630422	579.872810099359	1108.560174933239	734.808218546152	357.931778648508	1000.456266497772	633.112717917305	291.440624264206	1065.630776171563	543.195629314752	355.938787075083	1054.038314533311	474.524166140925	365.145121080449	1019.226620334372	406.946291256659	354.824032651962	917.150347715128	305.720102043361	297.903377922538	947.693022376453	187.674507630683	369.902594162498	1170.292505911312	410.146705364129	592.781925950422	1098.259016650666	309.783653443306	660.593663137476	1145.122993080144	211.483714319748	606.844168395767	1018.094007325805	43.766619429410	588.911695566762	1189.278447833580	99.628484267742	620.760454241344	1102.717309611172	37.397172943149	661.930418104094	1309.508601957426	49.672103653933	647.116978306511	804.648367115319	39.332019459314	404.631489313400	881.163810054748	35.588118138035	326.610463265913	964.362930835303	95.558711798059	357.391159894805	1093.676829944474	41.051440708571	332.315373498346	1104.610807932698	1098.777430486122	164.301332751897	1345.280376375283	1005.756545342683	194.957782136033	916.269715697127	1108.329954971644	752.852759221723	921.514797523859	847.110759150972	771.315343797022	
127	55.672000000000	870.595549032100	998.256225244471	480.584854346351	1054.269203478434	1434.343293681991	313.732322852067	1142.400467949854	1364.511509383562	482.823513597618	1041.137520734004	1431.044335613192	650.184958799039	1021.137866013514	1492.972347748732	470.511204394540	1096.972964698777	938.741786664252	609.329882031226	1093.608343960660	962.628185471727	333.708465411336	1160.945722129611	747.822277809063	581.052761151229	1094.662530618194	632.328357464474	645.942612483616	1181.329529378774	587.408091058441	569.020463150503	1196.970592959305	497.952647830040	580.552362256016	1109.576162451949	734.394214435582	359.765542713263	1001.035967771103	632.668378580540	293.898516218928	1067.008037275239	542.469121620051	357.562731414576	1055.688576486468	472.945782791072	366.215547331652	1019.184767486659	405.959436097830	356.090577075585	915.040398134138	306.706435892421	299.195685002195	944.237295909619	187.686005458522	370.227284607776	1166.348106725111	408.548192759724	593.418217152018	1094.337573508955	308.263499089550	661.381106692138	1140.012436000127	209.911240071971	606.685830472601	1011.813689677973	43.100893421127	588.822589672973	1182.843268708475	98.372787121170	620.248566190547	1096.439261417337	36.880044662067	661.887370020797	1303.428553780235	48.549513881239	646.724571287264	799.556793399920	40.448486932033	404.491458511949	876.150545681230	36.008645076406	326.651126166493	959.692086470784	95.693889519907	357.295050430916	1088.678038896180	40.770117728762	332.219368078987	1100.848901822669	1097.311875743843	168.561440933362	1339.652233757548	998.560887294239	198.364903954081	920.505372883006	1105.963191381087	755.865860371660	929.807587305008	844.561411452088	772.397757036320	
